<svg xmlns="http://www.w3.org/2000/svg" xmlns:xlink="http://www.w3.org/1999/xlink" xmlns:serif="http://www.serif.com/" width="100%" height="100%" viewBox="0 0 71 20" xml:space="preserve" style="fill-rule:evenodd;clip-rule:evenodd;stroke-linejoin:round;stroke-miterlimit:2;">    <g transform="matrix(1,0,0,1,-6213,-1688)">        <g transform="matrix(0.0877533,0,0,0.0878183,6199,1662.7)">            <g id="BSC_logo">                <g>                    <path id="Shape" d="M385.4,324.6L422,324.6C431.3,324.6 438.1,327.1 442.5,331.4C446.8,335.1 448.7,340.1 448.7,345C448.7,346.9 448.7,349.3 448.1,351.2C446.9,354.3 445,357.4 442.5,359.9C441.3,361.1 440,361.8 438.8,362.4C443.1,363.6 446.9,366.1 450,369.2C452.5,372.3 453.7,376 453.7,381.6C453.7,384.7 453.1,388.4 451.8,390.9C450.6,393.4 448.1,395.9 445.6,397.7C442.5,399.6 439.4,400.8 436.3,402C432.6,403.2 428.2,403.2 423.9,403.2L386,403.2L386,324.4L385.4,324.4L385.4,324.6ZM418.9,356.8C422,356.8 425.1,356.2 428.2,354.9C430.7,353.7 431.9,351.2 431.9,348.7C431.9,346.2 430.7,343.7 428.8,342.5C426.3,340.6 423.2,340 420.1,340.6L402.7,340.6L402.7,357.3L418.8,357.3L418.8,356.8L418.9,356.8ZM423.2,388.5C426.3,388.5 429.4,387.9 432.5,386.6C435,385.4 436.2,382.9 435.6,379.8C435.6,377.3 434.4,374.8 432.5,373.6C430.6,372.4 426.9,371.1 422.6,371.1L402.1,371.1L402.1,388.5L423.2,388.5Z" style="fill:rgb(115,119,126);fill-rule:nonzero;"></path>                    <rect id="Path" x="475.3" y="324.6" width="17.4" height="79.4" style="fill:rgb(115,119,126);fill-rule:nonzero;"></rect>                    <path id="Path_1_" d="M519.4,324.6L535.5,324.6L572.7,373.6L572.7,324.6L590,324.6L590,404L575.2,404L536.1,353.7L536.1,404L519.4,404L519.4,324.6Z" style="fill:rgb(115,119,126);fill-rule:nonzero;"></path>                    <path id="Shape_1_" d="M642.8,324L658.9,324L693,404L675,404L667.6,386L634.1,386L626.7,404L608.7,404L642.8,324ZM661.4,371.1L650.9,345.1L640.4,371.1L661.4,371.1Z" style="fill:rgb(115,119,126);fill-rule:nonzero;"></path>                    <path id="Path_2_" d="M711.6,324.6L727.7,324.6L764.9,373.6L764.9,324.6L782.3,324.6L782.3,404L767.4,404L728.9,353.7L728.9,404L711.6,404L711.6,324.6Z" style="fill:rgb(115,119,126);fill-rule:nonzero;"></path>                    <path id="Path_3_" d="M845.5,405.2C839.9,405.2 834.3,404 829.4,402.1C819.5,397.8 812,390.3 807.7,380.4C805.8,375.4 804.6,369.9 804.6,364.3C804.6,353.8 808.9,343.2 816.4,335.2C820.1,331.5 824.5,328.4 829.4,326.5C835,324 840.6,323.4 846.1,323.4C849.2,323.4 852.9,323.4 856,324C859.1,324.6 861.6,325.2 864.1,326.5C866.6,327.7 869.1,329 870.9,330.2C872.8,331.4 875.2,333.3 877.1,335.2L866.6,348.2C863.5,345.7 860.4,343.2 857.3,341.4C854.2,339.6 850.5,338.9 846.8,338.9C843.7,338.9 840.6,339.5 837.5,340.8C834.4,342 831.9,343.9 830.1,346.4C828.3,348.9 826.4,351.4 825.1,354.5C823.9,357.6 823.2,360.7 823.2,363.8C823.2,366.9 823.8,370.6 825.1,373.7C826.4,376.8 827.6,379.3 830.1,381.8C834.4,386.8 840.6,389.2 846.8,389.2C850.5,389.2 854.9,388.6 858.6,386.7C861.7,384.8 865.4,382.4 867.9,379.9L879,391C877.1,392.9 874.7,395.3 872.8,397.2C870.3,399.1 867.8,400.3 865.4,401.5C862.9,402.7 859.8,404 856.7,404.6C852.3,405.2 848.6,405.2 845.5,405.2Z" style="fill:rgb(115,119,126);fill-rule:nonzero;"></path>                    <path id="Path_4_" d="M898.9,324.6L958.4,324.6L958.4,340.1L915.6,340.1L915.6,356.2L953.4,356.2L953.4,371.7L915.6,371.7L915.6,388.5L959,388.5L959,404L898.9,404L898.9,324.6Z" style="fill:rgb(115,119,126);fill-rule:nonzero;"></path>                    <path id="Path_5_" d="M407.7,482.1C403.4,482.1 399,481.5 395.3,479.6C391.6,478.4 387.9,475.9 384.1,472.8L390.3,466C392.8,468.5 395.3,469.7 398.4,471.6C401.5,472.8 404.6,473.5 407.7,473.5C410.2,473.5 412.7,472.9 415.1,471.6C417,470.4 417.6,468.5 417.6,466.6C417.6,466 417.6,464.7 417,464.1C416.4,463.5 415.8,462.2 415.1,461.6C413.9,461 412.6,460.4 411.4,459.7C409.5,459.1 407.1,458.5 405.2,457.8C402.7,457.2 399.6,456.6 397.1,455.3C395.2,454.7 392.8,453.4 391.5,452.2C390.3,451 389,449.7 387.8,447.9C386.6,445.4 386.6,442.9 386.6,441.1C386.6,438.6 387.2,436.8 387.8,434.3C388.4,432.4 390.3,430.6 391.5,429.3C393.4,428.1 395.2,426.8 397.7,426.2C400.2,425.6 402.7,425 405.1,425C408.8,425 412.5,425.6 416.3,426.9C419.4,428.1 422.5,430 425.6,431.9L420.6,439.3C418.1,437.4 415.6,436.2 413.2,435C410.7,433.8 408.2,433.8 405.8,433.8C403.3,433.8 400.8,434.4 399,435.7C397.8,436.9 396.5,438.8 396.5,440.7C396.5,441.9 396.5,442.6 397.1,443.8C397.7,444.4 398.3,445.7 399,446.3C400.2,446.9 401.5,447.5 403.3,448.2C405.2,448.8 407,449.4 410.1,450.1C412.6,450.7 415.1,451.3 418.2,452.6C420.1,453.2 421.9,454.5 423.8,455.7C425,456.9 426.3,458.8 426.9,460C427.5,461.9 428.1,463.7 428.1,466.2C428.1,468.7 427.5,471.2 426.9,473C425.7,474.9 424.4,476.7 422.6,478.6C420.7,479.8 418.9,481.1 416.4,481.7C413.3,481.5 410.2,482.1 407.7,482.1Z" style="fill:rgb(115,119,126);fill-rule:nonzero;"></path>                    <path id="Path_6_" d="M438.7,425.7L449.3,425.7L466,451.7L483.4,425.7L493.9,425.7L493.9,481.5L484,481.5L484,441.2L466.6,467.2L466,467.2L448.7,441.2L448.7,481.5L438.7,481.5L438.7,425.7Z" style="fill:rgb(115,119,126);fill-rule:nonzero;"></path>                    <path id="Shape_2_" d="M527.4,425.1L536.7,425.1L560.9,480.9L550.4,480.9L544.8,467.3L518.8,467.3L513.2,480.9L503.3,480.9L527.4,425.1ZM541.7,459.2L531.8,436.9L522.5,459.2L541.7,459.2Z" style="fill:rgb(115,119,126);fill-rule:nonzero;"></path>                    <path id="Shape_3_" d="M570.8,425.7L595.6,425.7C598.7,425.7 601.8,426.3 604.9,426.9C607.4,427.5 609.9,429.4 611.7,431.2C612.9,432.4 614.2,434.3 615.4,436.8C616,438.7 616.6,441.1 616.6,443.6C616.6,445.5 616,447.9 615.4,449.8C614.8,451.7 613.5,452.9 612.9,454.8C611.7,456 610.4,457.3 608.6,458.5C606.7,459.7 604.9,460.4 603,461L617.9,482.1L606.1,482.1L592.5,462.9L580.1,462.9L580.1,482.1L570.2,482.1L570.8,425.7ZM595,453C598.1,453 601.2,452.4 603.1,450.5C605,448.6 606.2,446.2 606.2,443.7C606.2,441.2 605,438.7 603.1,436.9C600.6,435 597.5,434.4 594.4,434.4L580.1,434.4L580.1,453L595,453Z" style="fill:rgb(115,119,126);fill-rule:nonzero;"></path>                    <path id="Path_7_" d="M642.1,434.4L624.1,434.4L624.1,425.7L669.4,425.7L669.4,434.4L651.4,434.4L651.4,481.5L641.5,481.5L642.1,434.4Z" style="fill:rgb(115,119,126);fill-rule:nonzero;"></path>                    <path id="Path_8_" d="M729.6,482.1C725.9,482.1 722.2,481.5 718.4,479.6C711.6,476.5 706,471.5 703.5,464.7C702.3,461 701,457.3 701.6,453.5C701.6,449.8 702.2,446.1 703.5,442.3C706,435.5 711.6,429.9 718.4,426.8C722.1,425.6 725.8,424.3 730.2,424.3C732.7,424.3 735.2,424.3 737,424.9C738.9,425.5 740.7,426.1 742.6,426.8C744.5,427.4 745.7,428.7 747.6,429.3C748.8,430.5 750.7,431.8 751.9,433L745.7,440.4C743.8,438.5 741.4,436.7 738.9,435.4C736.4,434.2 733.3,433.5 730.2,433.5C727.7,433.5 725.2,434.1 722.8,434.7C720.3,435.9 718.5,437.2 716.6,439C714.7,440.9 713.5,442.7 712.9,445.2C712.3,447.7 711.7,450.2 711.7,452.6C711.7,455.1 712.3,457.6 712.9,460C713.5,462.4 714.8,464.3 716.6,466.2C718.5,468.1 720.3,469.3 722.8,470.5C725.3,471.7 727.8,472.4 730.2,471.7C733.3,471.7 736.4,471.1 738.9,469.8C741.4,468.6 743.9,466.7 746.3,464.2L752.5,470.4C751.3,471.6 749.4,473.5 748.2,474.7C746.3,475.9 745.1,477.2 743.2,477.8C741.3,478.4 739.5,479.7 737,479.7C734.5,482.1 732,482.1 729.6,482.1Z" style="fill:rgb(115,119,126);fill-rule:nonzero;"></path>                    <path id="Path_9_" d="M762.4,425.7L771.7,425.7L771.7,448.6L798.4,448.6L798.4,425.7L808.3,425.7L808.3,481.5L798.4,481.5L798.4,457.9L771.7,457.9L771.7,481.5L762.4,481.5L762.4,425.7Z" style="fill:rgb(115,119,126);fill-rule:nonzero;"></path>                    <path id="Shape_4_" d="M842.4,425.1L851.7,425.1L875.9,480.9L865.4,480.9L859.8,467.3L833.8,467.3L828.2,480.9L818.3,480.9L842.4,425.1ZM856.1,459.2L846.8,436.9L837.5,459.2L856.1,459.2Z" style="fill:rgb(115,119,126);fill-rule:nonzero;"></path>                    <rect id="Path_10_" x="885.8" y="425.7" width="10" height="55.8" style="fill:rgb(115,119,126);fill-rule:nonzero;"></rect>                    <path id="Path_11_" d="M910.6,425.7L919.3,425.7L949.1,464.1L949.1,425.7L959,425.7L959,481.5L950.9,481.5L920.6,441.8L920.6,481.5L910.6,481.5L910.6,425.7Z" style="fill:rgb(115,119,126);fill-rule:nonzero;"></path>                    <path id="binancedex" d="M276.3,477.8L276.3,502L255.2,514.4L234.7,502L234.7,477.8L255.2,490.2L276.3,477.8ZM163.4,394.1L183.9,406.5L183.9,448L219.2,469.1L219.2,493.3L163.4,460.4L163.4,394.1ZM347,394.1L347,460.5L290.6,493.4L290.6,469.2L325.9,448.1L325.9,406.6L347,394.1ZM290.5,361.2L311.6,373.6L311.6,397.8L276.3,418.9L276.3,461L255.8,473.4L235.4,461L235.4,418.8L198.8,397.7L198.8,373.5L219.9,361.1L255.2,382.2L290.5,361.2ZM198.8,415.1L219.3,427.5L219.3,451.7L198.8,439.3L198.8,415.1ZM311.6,415.1L311.6,439.3L291.1,451.7L291.1,427.5L311.6,415.1ZM183.9,340.1L205,352.5L183.9,364.9L183.9,389.1L163.4,376.7L163.4,352.5L183.9,340.1ZM326.5,340.1L347.6,352.5L347.6,376.7L326.5,389.1L326.5,364.9L306,352.5L326.5,340.1ZM255.2,340.1L276.3,352.5L255.2,364.9L234.7,352.5L255.2,340.1ZM255.2,298.6L311.6,331.5L291.1,343.9L255.8,322.8L219.8,343.9L199.3,331.5L255.2,298.6Z" style="fill:rgb(115,119,126);fill-rule:nonzero;"></path>                </g>            </g>        </g>    </g></svg>