<svg xmlns="http://www.w3.org/2000/svg" xmlns:xlink="http://www.w3.org/1999/xlink" xmlns:serif="http://www.serif.com/" width="100%" height="100%" viewBox="0 0 62 20" xml:space="preserve" style="fill-rule:evenodd;clip-rule:evenodd;stroke-linejoin:round;stroke-miterlimit:2;">    <g transform="matrix(1,0,0,1,-6320,-1688)">        <g id="ETH_logo" transform="matrix(0.0178422,0,0,0.0178422,6322.76,1685.73)">            <g transform="matrix(1,0,0,1,805.114,-787.663)">                <path d="M225.807,1591.82C225.807,1597.33 221.192,1601.82 215.681,1601.82L20.596,1601.82C25.467,1650.02 61.741,1693.98 112.755,1693.98C147.619,1693.98 173.511,1680.65 192.993,1652.83C195.813,1648.99 200.043,1646.55 205.427,1648.86C208.375,1650.14 210.425,1652.83 210.938,1655.91C211.451,1659.12 210.554,1660.91 209.656,1662.7C190.045,1696.93 150.952,1713.72 112.627,1713.72C47.001,1713.72 0.216,1655.01 0.216,1592.21C0.216,1529.4 47.001,1470.7 112.627,1470.7C178.253,1470.57 225.678,1529.14 225.807,1591.82M204.914,1582.34C200.684,1534.14 163.769,1490.18 112.755,1490.18C61.741,1490.18 25.467,1534.14 20.596,1582.34L204.914,1582.34ZM462.548,1475.44C468.188,1475.44 472.29,1480.31 472.29,1485.18C472.29,1490.82 468.06,1494.92 462.548,1494.92L410.252,1494.92L410.252,1700.13C410.252,1705 406.023,1709.87 400.511,1709.87C394.871,1709.87 390.77,1705 390.77,1700.13L390.77,1494.92L340.524,1494.92C334.885,1494.92 330.783,1490.69 330.783,1485.18C330.783,1480.31 335.013,1475.44 340.524,1475.44L390.77,1475.44L390.77,1400.33C390.77,1395.58 393.974,1391.23 398.588,1390.46C405.125,1389.43 410.252,1393.92 410.252,1400.07L410.252,1475.44L462.548,1475.44ZM781.579,1574.65L781.579,1698.98C781.579,1704.62 776.709,1708.72 771.838,1708.72C766.198,1708.72 762.097,1704.49 762.097,1698.98L762.097,1574.65C762.097,1532.73 738.384,1490.82 691.6,1490.82C631.613,1490.82 605.721,1543.24 609.182,1596.95C609.182,1598.36 609.823,1604.64 609.823,1605.28L609.823,1698.59C609.823,1703.34 606.619,1707.69 602.004,1708.46C595.467,1709.49 590.34,1705 590.34,1698.85L590.34,1290.48C590.34,1285.61 594.57,1280.74 600.082,1280.74C605.721,1280.74 609.823,1285.61 609.823,1290.48L609.823,1521.58C626.614,1491.59 656.607,1471.34 691.471,1471.34C748.766,1471.34 781.579,1521.58 781.579,1574.65M1131.37,1591.82C1131.37,1597.33 1126.76,1601.82 1121.25,1601.82L926.034,1601.82C930.905,1650.02 967.179,1693.98 1018.19,1693.98C1053.06,1693.98 1078.95,1680.65 1098.43,1652.83C1101.25,1648.99 1105.48,1646.55 1110.87,1648.86C1113.81,1650.14 1115.86,1652.83 1116.38,1655.91C1116.89,1659.12 1115.99,1660.91 1115.09,1662.7C1095.48,1696.93 1056.39,1713.72 1018.07,1713.72C952.439,1713.72 905.654,1655.01 905.654,1592.21C905.654,1529.4 952.439,1470.7 1018.07,1470.7C1083.82,1470.57 1131.25,1529.14 1131.37,1591.82M1110.35,1582.34C1106.12,1534.14 1069.21,1490.18 1018.19,1490.18C967.179,1490.18 930.905,1534.14 926.034,1582.34L1110.35,1582.34ZM1370.81,1484.54C1370.81,1490.82 1367.35,1494.28 1361.71,1495.05C1304.41,1503.38 1278.65,1550.16 1278.65,1604.64L1278.65,1697.95C1278.65,1702.69 1275.44,1707.05 1270.83,1707.82C1264.29,1708.85 1259.16,1704.36 1259.16,1698.21L1259.16,1485.56C1259.16,1480.82 1262.37,1476.46 1266.98,1475.69C1273.52,1474.67 1278.65,1479.15 1278.65,1485.31L1278.65,1528.63C1294.67,1501.46 1326.84,1475.57 1360.3,1475.57C1365.17,1475.44 1370.81,1479.03 1370.81,1484.54M1691.25,1591.82C1691.25,1597.33 1686.63,1601.82 1681.12,1601.82L1486.04,1601.82C1490.91,1650.02 1527.18,1693.98 1578.2,1693.98C1613.06,1693.98 1638.95,1680.65 1658.43,1652.83C1661.25,1648.99 1665.48,1646.55 1670.87,1648.86C1673.82,1650.14 1675.87,1652.83 1676.38,1655.91C1676.89,1659.12 1675.99,1660.91 1675.1,1662.7C1655.49,1696.93 1616.39,1713.72 1578.07,1713.72C1512.44,1713.72 1465.66,1655.01 1465.66,1592.21C1465.66,1529.4 1512.44,1470.7 1578.07,1470.7C1643.69,1470.57 1691.12,1529.14 1691.25,1591.82M1670.35,1582.34C1666.12,1534.14 1629.21,1490.18 1578.2,1490.18C1527.18,1490.18 1490.91,1534.14 1486.04,1582.34L1670.35,1582.34ZM2006.18,1486.97L2006.18,1700.13C2006.18,1705.77 2001.31,1709.87 1996.43,1709.87C1990.8,1709.87 1986.69,1705.64 1986.69,1700.13L1986.69,1659.63C1970.67,1691.8 1941.96,1714.74 1905.69,1714.74C1847.75,1714.74 1815.58,1664.5 1815.58,1611.43L1815.58,1486.46C1815.58,1481.59 1819.81,1476.72 1825.32,1476.72C1830.96,1476.72 1835.06,1481.59 1835.06,1486.46L1835.06,1611.43C1835.06,1653.35 1858.77,1695.26 1905.56,1695.26C1971.18,1695.26 1986.57,1633.86 1986.57,1566.06L1986.57,1486.46C1986.57,1480.82 1992.21,1475.05 1999.13,1477.11C2003.36,1478.52 2006.18,1482.62 2006.18,1486.97M2499.66,1573.88L2499.66,1698.85C2499.66,1704.49 2494.78,1708.59 2489.91,1708.59C2484.27,1708.59 2480.17,1704.36 2480.17,1698.85L2480.17,1573.88C2480.17,1531.96 2456.46,1490.82 2409.68,1490.82C2350.97,1490.82 2328.67,1553.63 2328.67,1602.46L2328.67,1698.85C2328.67,1704.49 2323.8,1708.59 2318.93,1708.59C2313.29,1708.59 2309.19,1704.36 2309.19,1698.85L2309.19,1573.88C2309.19,1531.96 2285.47,1490.82 2238.69,1490.82C2179.34,1490.82 2154.86,1537.6 2157.04,1599.77C2157.04,1601.18 2157.68,1604 2157.04,1604.64L2157.04,1698.59C2157.04,1703.34 2153.84,1707.69 2149.09,1708.46C2142.56,1709.49 2137.43,1705 2137.43,1698.85L2137.43,1485.56C2137.43,1480.82 2140.63,1476.46 2145.25,1475.69C2151.78,1474.67 2156.91,1479.15 2156.91,1485.31L2156.91,1520.94C2173.7,1490.95 2203.7,1471.34 2238.56,1471.34C2278.3,1471.34 2309.06,1496.46 2321.62,1533.5C2337.64,1497.23 2369.04,1471.34 2409.55,1471.34C2466.84,1471.34 2499.66,1520.81 2499.66,1573.88" style="fill:rgb(115,119,126);fill-rule:nonzero;stroke:rgb(115,119,126);stroke-width:30.83px;"></path>            </g>            <g transform="matrix(1,0,0,1,-1029.54,178.979)">                <g opacity="0.6">                    <path d="M1250.06,392.732L923.983,541.033L1250.06,733.682L1576.02,541.033L1250.06,392.732Z" style="fill:rgb(115,119,126);fill-rule:nonzero;"></path>                </g>                <g opacity="0.45">                    <path d="M923.983,541.033L1250.06,733.682L1250.06,0L923.983,541.033Z" style="fill:rgb(115,119,126);fill-rule:nonzero;"></path>                </g>                <g opacity="0.8">                    <path d="M1250.06,0L1250.06,733.682L1576.02,541.033L1250.06,0Z" style="fill:rgb(115,119,126);fill-rule:nonzero;"></path>                </g>                <g opacity="0.45">                    <path d="M923.983,602.814L1250.06,1062.2L1250.06,795.463L923.983,602.814Z" style="fill:rgb(115,119,126);fill-rule:nonzero;"></path>                </g>                <g opacity="0.8">                    <path d="M1250.06,795.463L1250.06,1062.2L1576.27,602.814L1250.06,795.463Z" style="fill:rgb(115,119,126);fill-rule:nonzero;"></path>                </g>            </g>        </g>    </g></svg>